<?xml version="1.0" encoding="UTF-8"?><svg id="Layer_1" xmlns="http://www.w3.org/2000/svg" viewBox="0 0 1102.6 665.1"><defs><style>.cls-1,.cls-2{fill:#fff;}.cls-3{fill:blue;}.cls-4{fill:#006837;}.cls-5{fill:#9e005d;stroke:#9e005d;stroke-miterlimit:10;stroke-width:32px;}.cls-2{font-family:Broadway, Broadway;font-size:129.4px;}</style></defs><path class="cls-5" d="m923.9,254.3c-24.6-66.9-60.1-123.6-97.5-155.5l-17.1-13.2c-2.9-2.2-6-4.1-9.3-5.8-22.4-11.3-48.4-7.9-75.2,10-30.3-11-65-16.7-100.6-16.7s-70.4,5.8-100.8,16.8c-26.8-17.8-52.8-21.3-75.1-10-2.8,1.4-5.5,3.1-8.2,5l-17.2,12.6c-37.9,31.7-74,88.8-99,156.7-22,59.8-32.9,120.9-30.8,172.2,2.2,52,17.6,87.9,43.5,101,7.1,3.6,14.6,5.3,22.6,5.3,16.2,0,34-7.3,52.7-21.8,26.5-20.6,52.4-53.7,74.9-95.9l1,1.1,7.2-2.6c38.6-13.7,82.7-21,127.5-21s90.6,7.5,129.7,21.8l7.2,2.6,1.7-1.7c22.5,42.1,48.4,75.2,74.9,95.8,18.6,14.5,36.5,21.8,52.6,21.8s15.5-1.8,22.6-5.3c25.9-13.1,41.3-49,43.5-101,2.1-51.3-8.8-112.5-30.8-172.2Z"/><path class="cls-3" d="m420.6,306.4c-17.5-47.7-24.6-97.5-19.8-140.1,3.2-28.6,11.6-51.9,24.1-68.2-36,30.1-72.4,85.6-98.1,155.5-45.2,122.8-40.1,243.5,11.2,269.5,41.8,21.2,101.5-27,146.6-112-25.9-25.3-48.6-62.5-64.1-104.7Z"/><path class="cls-4" d="m921.2,253.6c-25.3-68.9-61.1-123.9-96.6-154.3,12,16.3,20,39,23.1,66.9,4.8,42.6-2.2,92.3-19.8,140.1-15.6,42.5-38.5,79.7-64.5,105.1,45.1,84.9,104.7,132.9,146.5,111.8,51.4-26,56.4-146.7,11.2-269.5Z"/><path d="m835.8,167.5c-4.5-39.6-19-67.6-41.1-78.7-23.9-12.1-48.9-.7-65.6,10.9l-2.6,1.8-3-1.1s0,0,0,0c-29.7-11.1-64-17-99.2-17s-69.8,5.9-99.5,17.1h-.2c0,0-2.8,1.1-2.8,1.1l-2.6-1.8c-16.7-11.6-41.6-23-65.5-10.9-22,11.1-36.6,39.1-41.1,78.7-4.6,40.8,2.2,88.6,19.1,134.6,14.4,39.2,35.1,73.6,58.6,97.7.2.2.4.4.6.7,39.9-14.2,85.3-21.7,131.5-21.7s93.4,7.8,133.8,22.5c.4-.4.8-.8,1.3-1.3,23.7-24,44.5-58.6,59-98,16.9-46,23.7-93.8,19.1-134.6Z"/><circle class="cls-1" cx="747" cy="200" r="17"/><circle class="cls-1" cx="713" cy="234" r="17"/><circle class="cls-1" cx="747" cy="268" r="17"/><path class="cls-1" d="m541.1,221.9h-28.3c0,0,0,0,0,0v-27c0-5.7-4-10.9-9.7-11.7s-13.1,4.4-13.1,11.3v27.4c0,0,0,0,0,0h-27c-5.7,0-10.9,4-11.7,9.7s4.4,13.1,11.3,13.1h27.4c0,0,0,0,0,0v28.3c0,5.7,4,10.9,9.7,11.7,7,1.1,13.1-4.4,13.1-11.3v-28.8c0,0,0,0,0,0h28.8c6.8,0,12.3-6.1,11.3-13.1s-6-9.7-11.7-9.7Z"/><circle class="cls-1" cx="781" cy="234" r="17"/><text/><text/><rect x="849" y="0" width="253.7" height="134.6" rx="66.8" ry="66.8"/><text class="cls-2" transform="translate(865.2 114.9) scale(.8 1)"><tspan x="0" y="0">FGF</tspan></text></svg>