<?xml version="1.0" standalone="no"?>
<!DOCTYPE svg PUBLIC "-//W3C//DTD SVG 20010904//EN"
 "http://www.w3.org/TR/2001/REC-SVG-20010904/DTD/svg10.dtd">
<svg version="1.0" xmlns="http://www.w3.org/2000/svg"
 width="96.000000pt" height="96.000000pt" viewBox="0 0 96.000000 96.000000"
 preserveAspectRatio="xMidYMid meet">
<metadata>
Created by potrace 1.14, written by Peter Selinger 2001-2017
</metadata>
<g transform="translate(0.000000,96.000000) scale(0.100000,-0.100000)"
fill="#000000" stroke="none">
<path d="M165 805 c-3 -8 -7 -22 -10 -30 -2 -8 -14 -15 -25 -15 -12 0 -34 -12
-49 -28 -22 -22 -29 -41 -36 -92 -4 -36 -9 -76 -11 -90 -2 -14 -6 -64 -9 -111
-9 -116 17 -179 88 -215 80 -42 178 -21 228 49 16 22 29 46 29 54 0 10 24 13
108 13 l107 -1 21 -42 c39 -79 133 -115 218 -83 91 35 120 97 111 233 -3 51
-8 104 -11 116 -2 12 -6 47 -9 77 -7 65 -30 101 -76 116 -22 8 -36 19 -39 35
-5 21 -12 24 -65 27 -40 2 -63 -1 -70 -10 -14 -18 -363 -19 -370 0 -7 19 -124
16 -130 -3z"/>
</g>
</svg>
